/* XPM */
static char * fontpage_xpm[] = {
"49 48 63 1",
" 	c None",
".	c #FCFEFB",
"+	c #EBEDEA",
"@	c #D3D2CD",
"#	c #DFE2DE",
"$	c #EEF5F7",
"%	c #C3C1BE",
"&	c #D4D6E0",
"*	c #B4BCCF",
"=	c #A0A4BA",
"-	c #C3C2CB",
";	c #8A8AA2",
">	c #BAD7F9",
",	c #DFF0F9",
"'	c #CEE3F8",
")	c #666664",
"!	c #76726F",
"~	c #757290",
"{	c #A2BDE6",
"]	c #6C7EAE",
"^	c #E8CFD3",
"/	c #A99DA8",
"(	c #DA97A0",
"_	c #DDAEB4",
":	c #DFCCD6",
"<	c #D8BAC8",
"[	c #8BB9F6",
"}	c #D09EB4",
"|	c #606182",
"1	c #BF7A93",
"2	c #9A8D8B",
"3	c #7D4C6A",
"4	c #C7627F",
"5	c #AC4663",
"6	c #675875",
"7	c #9B5F72",
"8	c #E88D96",
"9	c #C65363",
"0	c #EC7372",
"a	c #B26266",
"b	c #EC8187",
"c	c #AA120D",
"d	c #D60E0A",
"e	c #F15A5B",
"f	c #9E383C",
"g	c #FB4A48",
"h	c #AAA6A2",
"i	c #FF1100",
"j	c #DDC098",
"k	c #F8C461",
"l	c #C87904",
"m	c #F0B02F",
"n	c #DD8E1E",
"o	c #AF6D1F",
"p	c #FAD586",
"q	c #FEE57C",
"r	c #7E1816",
"s	c #FFF4B9",
"t	c #77302D",
"u	c #654546",
"v	c #90403E",
"w	c #925522",
"x	c #EF9C02",
"                                                 ",
" ....................+++@..+##                   ",
" ....................+++@...+##                  ",
" ...............++++$+++%....+##                 ",
" ...........$&*======*-&%......##                ",
" .........$-==-&&&&&+&&**-++++++@@               ",
" ........#;=--==*&&&**-&&*--%%%%%%@              ",
" .......&;**=*>,$....$'**+-*&######)             ",
" ......&;*==',,$$$....$$'*&&*&####+!             ",
" .....&~*={,,,,$$$$..$$$$,&&&*####+!             ",
" ....$;=;{,,,,,$$$$$$$$$$,-*&--+++.!             ",
" ....*;=]',,,,,,$$$#^^^^-/(>*+*&++.!             ",
" ...$~=~{'',,,,,-_(((_____:&{-&-.+.!             ",
" ...-~=]>'',,,-((_^^^^^^:::<>{+*+..!             ",
" ...;;~[''''-}(<::^^^^^^:::({{&-&..!             ",
" ...|;][>''/1<:<_(((((_:<<<1*[*&-..!             ",
" ..+|=][>>;1<<(12====1_<<<};'{=#*+.!             ",
" ..&|;][{34}}1;='','*1<<<<1='>=&*+.!             ",
" ..&|;][34}156*''''';4}}}}7*'>=&=+.!             ",
" ..&|;]641146*''''''78((}46>>>=&=+.!             ",
" ..+|;]51113=''',,,-9(81(9;'>[=&*+.!             ",
" +++|;|1115;'',,,,,/0(8885*'>[*&-+.!             ",
" +++;~|1143*',,,,,,ab888b7''>{-*&+.!             ",
" +++;|~~19;',,,,,$@988b89;''{=&=++.)             ",
" +++c6~|15*,,,,$$$/0bbbb9*,'{***++.)             ",
" ++2d9|~|~',,,,$$$a0bb0ea&,{=&=&++.)             ",
" ++fgg3|~]>',,$$$/e00egg2,'=-==-++.)             ",
" +@dggg6~~~>',$$@0eggggeh'=-==*-++.)             ",
" +hdggge6~~~*,$#9gggge0(*;*==*=&++.)             ",
" +2diiiid6|~|~=<8888(_/;=*;;==-;-jk!             ",
" +2diiiiic~|~;~|~;;;~;==;;~;;=*~2lmn             ",
" +2diiiiiidc3|~;;;;===;~7di9c~~hopqmn            ",
" +hdiiiiiiiiidf36|~~77ediiir!;!okssqmn           ",
" +@tiiiiiiiiidr!tiiiiiiiict2@2onkpssqmn          ",
" ++2ciiiiiidcuh#viiiiiict!%#+wlxmkpssqmn         ",
" ++#!rcddcru2%++2cddcrt!h#+++@wlxmkpssqmn        ",
" ###@h!))!h%####@2))!2%#######@wlxmkpssqmn       ",
" #####@@@@########@@@##########@wlxmkpssqmn      ",
" ###############################@wlxmkpssqmn     ",
" ++++++++++++++++++++++++++++++++@wlxmkpssqmn    ",
" %%%%%%%%%%%%%%hhhhhhhhhhhhhhhhhhh2wlxmkpssqmn   ",
"  uuuuuuuuuuuuuuuuuuuuuuuuuuuuuuuuu wlxmkpssqmn  ",
"                                     wlxmkpspnh  ",
"                                      wlxmkko@=  ",
"                                       wlxno%*;  ",
"                                        wlo2=~   ",
"                                         wu||    ",
"                                                 "};
